<svg id="Capa_1" data-name="Capa 1" xmlns="http://www.w3.org/2000/svg" viewBox="0 0 100 100"><defs><style>.cls-1{fill:#fff;}</style></defs><title>Sin título-1</title><path class="cls-1" d="M50.5,1.93A48.5,48.5,0,1,0,99,50.43,48.5,48.5,0,0,0,50.5,1.93Zm23.67,62.5c0,5.8-3.88,9.67-9.69,9.68q-14.15,0-28.29,0a9.08,9.08,0,0,1-9.33-9.18q-.06-14.33,0-28.64c0-5.65,3.84-9.47,9.5-9.5q14.26-.06,28.53,0a9.1,9.1,0,0,1,9.28,9.47V50.52h0C74.17,55.16,74.18,59.79,74.17,64.43Z"/><path class="cls-1" d="M50.55,58.78a8.35,8.35,0,1,0-8.39-8.38A8.47,8.47,0,0,0,50.55,58.78Z"/><path class="cls-1" d="M68.68,32.27H60.75v7.91h7.93Z"/><path class="cls-1" d="M62.67,45.67c1.32,7.75,0,12.25-4.94,15.46-4.55,3-9.39,3.2-14,.26-5.82-3.72-7.25-9.21-5.38-15.74h-6.9c0,6.26,0,12.38,0,18.51,0,3.66,1.65,5.31,5.33,5.31H64.26c3.63,0,5.26-1.62,5.26-5.23,0-5.78,0-11.55,0-17.33,0-.41,0-.82-.06-1.23Z"/></svg>