<svg id="Capa_1" data-name="Capa 1" xmlns="http://www.w3.org/2000/svg" viewBox="0 0 100 100"><defs><style>.cls-1{fill:#9e005d;}</style></defs><title>logo svg</title><path class="cls-1" d="M83.85,64.13a8.36,8.36,0,0,0-8.79-4.42,7.46,7.46,0,0,0-5.8,5.07l-.19.53a1.64,1.64,0,0,1-.15-.15c-.06-.16-.12-.33-.19-.49a7.71,7.71,0,0,0-3.27-4.05A8,8,0,0,0,55.84,62a9.67,9.67,0,0,0-2.54,9.18,19.53,19.53,0,0,0,3.93,8.31,35.69,35.69,0,0,0,11.52,9.41.74.74,0,0,0,.6,0,39.9,39.9,0,0,0,8.36-5.94A23.52,23.52,0,0,0,84.28,73,11.11,11.11,0,0,0,83.85,64.13Z"/><path class="cls-1" d="M62.06,56.45l-13.77-38L35.17,54.51,20.84,93.87H15.57L48.29,4,68.68,60.45A7.13,7.13,0,0,0,62.06,56.45Z"/></svg>