<svg id="Capa_1" data-name="Capa 1" xmlns="http://www.w3.org/2000/svg" viewBox="0 0 100 100"><defs><style>.cls-1{fill:#fff;}</style></defs><title>flechas</title><rect class="cls-1" x="60.41" y="31.53" width="7.76" height="36.3" rx="2.27" transform="translate(113.97 -14.61) rotate(90)"/><path class="cls-1" d="M19.17,52.42,39.35,72.6a3.88,3.88,0,0,0,5.48,0h0a3.87,3.87,0,0,0,0-5.49L30.15,52.43a3.88,3.88,0,0,1,0-5.48l14.7-14.7a3.89,3.89,0,0,0,0-5.49h0a3.89,3.89,0,0,0-5.49,0L21.92,44.2h0l-2.74,2.74A3.87,3.87,0,0,0,19.17,52.42Z"/><path class="cls-1" d="M50.24,1.92A47.77,47.77,0,1,1,2.47,49.68,47.81,47.81,0,0,1,50.24,1.92Zm0,88.7A40.94,40.94,0,1,0,9.3,49.68,41,41,0,0,0,50.24,90.62Z"/></svg>