<svg id="Capa_1" data-name="Capa 1" xmlns="http://www.w3.org/2000/svg" viewBox="0 0 100 100"><defs><style>.cls-1{fill:#fff;}</style></defs><title>iconos</title><path class="cls-1" d="M82.59,30H56.29l12-19A2,2,0,1,0,65,8.84L51.8,29.71c0,.08-.08.16-.12.24H46.14L34.35,8.46a2,2,0,1,0-3.44,1.88L41.67,30h-25a8.89,8.89,0,0,0-8.9,8.89V83.76a8.89,8.89,0,0,0,8.9,8.9H82.59a8.9,8.9,0,0,0,8.9-8.9V38.84A8.9,8.9,0,0,0,82.59,30ZM66.65,78.3A4.67,4.67,0,0,1,62,83H22.17A4.67,4.67,0,0,1,17.5,78.3V44a4.67,4.67,0,0,1,4.67-4.67H62A4.67,4.67,0,0,1,66.65,44ZM79,76.86a5.64,5.64,0,1,1,5.63-5.63A5.63,5.63,0,0,1,79,76.86Zm0-21.93a5.64,5.64,0,1,1,5.63-5.64A5.63,5.63,0,0,1,79,54.93Z"/></svg>