<svg id="Capa_1" data-name="Capa 1" xmlns="http://www.w3.org/2000/svg" viewBox="0 0 100 100"><defs><style>.cls-1{fill:#fff;}</style></defs><title>iconos</title><path class="cls-1" d="M68.94,40.54a12.25,12.25,0,0,0,.92-6.92.38.38,0,0,0,0-.12,0,0,0,0,1,0,0,12.53,12.53,0,0,0-24.76,0h0A11.74,11.74,0,0,0,46.77,42l.09.14c.13.2.26.4.4.59,2.42,3.61,3.9,7.64,3.82,10.94-.09,3.53.2,5.39,2.77,5.29,1.72-.07,2.42-5.15,1.63-7s1.87-3.75,4.58-3.48,4.69,2.11,3.83,4.69a3.71,3.71,0,0,0,4.36-3.06c.71-3.7-.22-6.58.68-9.57Z"/><path class="cls-1" d="M46.52,43.62c-.93-1.32-2.06-8.15-2.06-8.15h0A12.55,12.55,0,1,0,21,42.7c.73,2.7,4.86,4.91,4.86,4.91l.05,0a13,13,0,0,0,1.46.69l.1,0c1.61.75,3.5,2.65,3.5,6.35s1.25,4.56,4.29,4.56,2.38-5.55,2.45-7.6,2.24-2.25,4-2.47,3.5-3.15,4.49-3.41S47.44,44.94,46.52,43.62Z"/><path class="cls-1" d="M60.59,19.93c0-6.18-6.27-11.19-14-11.19s-14,5-14,11.19c0,0-.66,2.62,5.88,5.06,0,0,5.22,1.65,6,7.07,0,0,3.76-10.1,10.75-9.93C61.58,22.28,60.59,19.93,60.59,19.93Z"/><path class="cls-1" d="M59.47,49.43c-3.77,0-3.11,4.23-3.11,4.23s.4,6.8-2.91,6.8S50,53.4,50,53.4s.33-6.74-2.84-6.74-2.62,3.92-7.73,4c0,0-1.76.26-1.14,5.63s-3.7,4.05-3.7,4.05l12.15,31L62.44,52.43S63.23,49.43,59.47,49.43ZM40.86,52.77a.66.66,0,0,1,.91.17l4.67,6.78a.66.66,0,0,1-.17.91.62.62,0,0,1-.37.11.66.66,0,0,1-.54-.28l-4.67-6.78A.66.66,0,0,1,40.86,52.77Zm-.62,10.75a.65.65,0,0,1,.91.16l4.67,6.79a.64.64,0,0,1-.17.9.63.63,0,0,1-.37.12.68.68,0,0,1-.54-.28l-4.66-6.79A.64.64,0,0,1,40.24,63.52Zm8.4,19.66a.7.7,0,0,1-.37.11.66.66,0,0,1-.54-.28l-4.67-6.78a.65.65,0,0,1,1.08-.74l4.67,6.78A.66.66,0,0,1,48.64,83.18Zm5.2-11.1a.62.62,0,0,1-.37.11.65.65,0,0,1-.53-.28l-4.67-6.78a.65.65,0,1,1,1.07-.74L54,71.17A.65.65,0,0,1,53.84,72.08Z"/></svg>