<svg id="Capa_1" data-name="Capa 1" xmlns="http://www.w3.org/2000/svg" viewBox="0 0 100 100"><defs><style>.cls-1{fill:#fff;}</style></defs><title>iconos</title><path class="cls-1" d="M69.52,11.92A19.58,19.58,0,0,1,80.64,27.25c1.24,10.47.76,23.76,9.2,25.87,0,0,4.79,1.92,3.64-8s.76-12.36,1.69-14.63c1.47-3.63,1.09-7.6-2-12.58S86.2,6.93,69.52,11.92Z"/><path class="cls-1" d="M33,11.92A19.58,19.58,0,0,0,21.93,27.25c-1.25,10.47-.77,23.76-9.2,25.87,0,0-4.79,1.92-3.64-8S8.32,32.71,7.4,30.44c-1.48-3.63-1.09-7.6,2-12.58S16.37,6.93,33,11.92Z"/><path class="cls-1" d="M83,54.46c-1.82-2.87-4-13.89-4.12-19s-2.78-13.7-2.78-13.7C70.54,9.13,52.06,11,50.87,11.14c-1.19-.13-19.67-2-25.24,10.65,0,0-2.68,8.62-2.78,13.7s-2.3,16.1-4.12,19c0,0-4.21,4.79,11.79,16.87,0,0,.1-10.27,11.22-9.7,0,0-1.16-6.43,9.13-6.66C61.16,55.2,60,61.63,60,61.63c11.11-.57,11.23,9.7,11.23,9.7C87.22,59.25,83,54.46,83,54.46ZM35.89,50.53c-3,0-5.37-3-5.37-6.8s2.4-6.8,5.37-6.8,5.36,3,5.36,6.8S38.85,50.53,35.89,50.53Zm30.66,0c-3,0-5.37-3-5.37-6.8s2.41-6.8,5.37-6.8,5.37,3,5.37,6.8S69.51,50.53,66.55,50.53Z"/><circle class="cls-1" cx="35.89" cy="41.15" r="2.31"/><circle class="cls-1" cx="66.55" cy="41.15" r="2.31"/><ellipse class="cls-1" cx="50.88" cy="62.18" rx="8.01" ry="6.84"/><path class="cls-1" d="M71,72.81S69.83,62.54,60,62.54c0,0-2.09,7.51-9.05,7.51l0,2.42V70.05c-7,0-9-7.51-9-7.51-9.89,0-11,10.27-11,10.27L43.73,85.46S43,78.1,45.19,77.33s4.65-.69,5.69-2.43c1,1.74,3.56,1.67,5.7,2.43S58,85.46,58,85.46Z"/><path class="cls-1" d="M45.13,79.57s-1.82,9.63,6.38,9.63,5.22-10.3,5.22-10.3S55,76.31,51.11,77.65C51.11,77.65,46.86,76.07,45.13,79.57Z"/></svg>