<svg id="Capa_1" data-name="Capa 1" xmlns="http://www.w3.org/2000/svg" viewBox="0 0 100 100"><defs><style>.cls-1{fill:none;}.cls-2{fill:#fff;}</style></defs><title>iconos</title><path class="cls-1" d="M21.32,76.78a10.57,10.57,0,0,1,21.13,0c0,.14,0,.27,0,.41h2.91c0-.14,0-.27,0-.41a13.48,13.48,0,0,0-26.95,0c0,.14,0,.27,0,.41h2.91C21.33,77.05,21.32,76.92,21.32,76.78Z"/><path class="cls-1" d="M31.88,70.44a6.34,6.34,0,0,0-6.34,6.34c0,.14,0,.27,0,.41h1.24c0-.14,0-.27,0-.41a5.11,5.11,0,0,1,10.21,0c0,.14,0,.27,0,.41h1.24c0-.14,0-.27,0-.41A6.34,6.34,0,0,0,31.88,70.44Z"/><path class="cls-2" d="M18.41,76.78a13.48,13.48,0,0,1,27,0c0,.14,0,.27,0,.41h4c0-.14,0-.27,0-.41a17.52,17.52,0,0,0-35,0c0,.14,0,.27,0,.41h4C18.42,77.05,18.41,76.92,18.41,76.78Z"/><path class="cls-2" d="M25.54,76.78a6.35,6.35,0,0,1,12.69,0c0,.14,0,.27,0,.41h4.24c0-.14,0-.27,0-.41a10.57,10.57,0,0,0-21.13,0c0,.14,0,.27,0,.41h4.24C25.57,77.05,25.54,76.92,25.54,76.78Z"/><path class="cls-2" d="M37,76.78a5.11,5.11,0,0,0-10.21,0c0,.14,0,.27,0,.41H37C37,77.05,37,76.92,37,76.78Z"/><path class="cls-2" d="M49.31,78.49H7.52A11.35,11.35,0,0,0,18.85,89.2h61.3A11.35,11.35,0,0,0,91.48,78.49Z"/><rect class="cls-2" x="28.23" y="6.89" width="5.36" height="50.2" rx="2.05"/><rect class="cls-2" x="35.55" y="6.89" width="5.36" height="50.2" rx="2.05"/><path class="cls-2" d="M73.56,38.34a8.75,8.75,0,0,0-1-1.51,7,7,0,0,0-2.64-2,5.85,5.85,0,0,0-2.51-.42c-3.25.17-5.73,3-5.73,3s-3.83-4.36-8.23-2.56-6.08,8.28-3.79,11.32S61.65,57,61.65,57s9.74-7.8,12-10.84c1.23-1.63,1.3-4.26.44-6.62A9.69,9.69,0,0,0,73.56,38.34Z"/><path class="cls-2" d="M78.05,24.8c-2.67-1.1-5,1.55-5,1.55s-2.33-2.65-5-1.55-3.7,5-2.31,6.88a17.36,17.36,0,0,0,1.91,2,5.77,5.77,0,0,1,5.2,2.44,8.27,8.27,0,0,1,1,1.51,59.14,59.14,0,0,0,6.48-5.92C81.75,29.84,80.73,25.9,78.05,24.8Z"/><path class="cls-2" d="M80.88,11.7H60.14a4.55,4.55,0,0,0-4.35,3.24H51.18a1.16,1.16,0,0,0-.55.15,8.45,8.45,0,0,0-8.44-8.17h0V24.54h0a8.44,8.44,0,0,0,8.37-7.35,1.22,1.22,0,0,0,.62.19h4.55a4.57,4.57,0,0,0,4.41,3.44H80.88a4.56,4.56,0,1,0,0-9.12Z"/><rect class="cls-2" x="21.4" y="6.92" width="5.99" height="2.66" rx="1.02"/><rect class="cls-2" x="21.4" y="13.53" width="5.99" height="2.66" rx="1.02"/><rect class="cls-2" x="21.4" y="20.86" width="5.99" height="2.66" rx="1.02"/><path class="cls-2" d="M72.2,72.51a16.86,16.86,0,0,0-28-12.69,21.2,21.2,0,0,1,2.57,2.35,13.39,13.39,0,0,1,21.1,15h3.66A16.86,16.86,0,0,0,72.2,72.51Z"/><path class="cls-2" d="M55.31,61A11.51,11.51,0,0,0,48,63.59a20.39,20.39,0,0,1,2.34,3.89,7.1,7.1,0,0,1,10.35,9.71h5.23a11.42,11.42,0,0,0,1-4.68A11.56,11.56,0,0,0,55.31,61Z"/><path class="cls-2" d="M60.9,72.51a5.57,5.57,0,0,0-10-3.44,20,20,0,0,1,1.2,6.81c0,.4-.07.92-.09,1.31h6.3A5.59,5.59,0,0,0,60.9,72.51Z"/><path class="cls-2" d="M73.42,77a7.23,7.23,0,1,1,14.46,0Z"/></svg>