<svg id="Capa_1" data-name="Capa 1" xmlns="http://www.w3.org/2000/svg" viewBox="0 0 100 100"><defs><style>.cls-1{fill:#fff;}.cls-2{fill:none;}</style></defs><title>iconos</title><path class="cls-1" d="M25.62,56.07S24.91,66.4,32.85,66.4s7.67-10.33,7.67-10.33,13.32,2.59,13.32,21H10.05S8,60.15,25.62,56.07Z"/><path class="cls-1" d="M33.07,65.77c5.32,0,6.52-7.36,6.52-7.36V53.17a2.75,2.75,0,0,1,.95-2.07l2.89-2.49a2.75,2.75,0,0,0,1-2.07v-11a2.72,2.72,0,0,0-.86-2L38.75,29a2.73,2.73,0,0,0-3.35-.32L23,36.55a2.73,2.73,0,0,0-1.27,2.31v8.49s0,1.91,3.2,3.87a2.74,2.74,0,0,1,1.32,2.26l.11,5.33S27.19,65.77,33.07,65.77ZM27.36,42.64a1.36,1.36,0,1,1,1.36-1.36A1.36,1.36,0,0,1,27.36,42.64Zm6,7.68a3.17,3.17,0,0,1-3.18-3.17h6.35A3.17,3.17,0,0,1,33.38,50.32Zm5.18-7.68a1.36,1.36,0,1,1,1.36-1.36A1.36,1.36,0,0,1,38.56,42.64Z"/><path class="cls-2" d="M69.68,50.32a3.16,3.16,0,0,0,3.17-3.17H66.51A3.17,3.17,0,0,0,69.68,50.32Z"/><path class="cls-2" d="M63.67,39.92A1.36,1.36,0,1,0,65,41.28,1.36,1.36,0,0,0,63.67,39.92Z"/><path class="cls-2" d="M51.23,27h0Z"/><path class="cls-2" d="M51.06,26.53l.15.43C51.17,26.83,51.12,26.68,51.06,26.53Z"/><path class="cls-2" d="M73.51,41.28a1.36,1.36,0,1,0,1.36-1.36A1.36,1.36,0,0,0,73.51,41.28Z"/><path class="cls-1" d="M51.47,27.76,51.23,27c.06.19.13.47.23.81Z"/><path class="cls-1" d="M49.17,23.05a28.38,28.38,0,0,1,1.89,3.48A11.84,11.84,0,0,0,49.17,23.05Z"/><path class="cls-1" d="M51.21,27v0Z"/><path class="cls-1" d="M53.78,47.54l0,1.92v-.22a89.2,89.2,0,0,0-.52-11C53.8,43.28,53.78,47.54,53.78,47.54Z"/><path class="cls-1" d="M57,55.69V47.54c0-1.6-.1-7.09-.14-9.48a2,2,0,0,1,.93-1.74l14.47-9.23a2,2,0,0,1,2.41.17l6.49,5.6a2,2,0,0,1,.7,1.5l.26,18.2a2,2,0,0,0,3,1.74l2.83-1.54s2.28-1.2,2.22-3.21l0-2s-1.82-18.3-4.84-24.76c-3.92-8.37-13-8.75-13-8.75-4.09-.2-15.74.22-18.95,11.21-.29,1-.55,2-.8,2.88A55.32,55.32,0,0,1,54.4,38.58a89.09,89.09,0,0,1,.51,11V50c0,2.35-.07,4.23-.09,5.71C57.2,56.71,57,55.69,57,55.69Z"/><path class="cls-1" d="M52.68,52.76l-2.1,1.15a7.1,7.1,0,0,0,1.32.55l2.76.87.16.06c0-1.49,0-3.36.09-5.71C54.86,51.61,52.68,52.76,52.68,52.76Z"/><path class="cls-1" d="M53.84,49.55v.13S53.84,49.59,53.84,49.55Z"/><path class="cls-1" d="M53.32,38.21a54.57,54.57,0,0,0-1.85-10.45v0A71.31,71.31,0,0,1,53.32,38.21Z"/><path class="cls-1" d="M53.78,47.54s0-4.26-.46-9.33a71.31,71.31,0,0,0-1.86-10.4c-.1-.34-.17-.62-.23-.81h0v0l-.15-.43a28.38,28.38,0,0,0-1.89-3.48,3,3,0,0,0-.23-.27,18.28,18.28,0,0,0-9.41-5.33A2,2,0,0,1,38,16.05l-.18-.58A2,2,0,0,0,36,14c-4.09-.2-15.73.22-18.94,11.21-3.92,13.42-4.14,21.1-4.14,21.1v6.38s-.07,1.23,2.69,2.1l2.75.87c2.56,1.07,2.32,0,2.32,0V47.54c0-1.6-.1-7.09-.14-9.48a2,2,0,0,1,.93-1.74l14.47-9.23a2,2,0,0,1,2.41.17l6.49,5.6a2,2,0,0,1,.7,1.5l.26,18.2a2,2,0,0,0,3,1.74l.72-.39,2.11-1.15s2.17-1.15,2.22-3.08v-.22Z"/><path class="cls-1" d="M71.71,28.71,59.34,36.55a2.73,2.73,0,0,0-1.27,2.31v8.49s0,1.91,3.2,3.87a2.74,2.74,0,0,1,1.32,2.26l.1,5.33s1.18,7,6.69,7c5.69,0,6.52-7.36,6.52-7.36V53.17a2.75,2.75,0,0,1,.95-2.07l2.89-2.49a2.74,2.74,0,0,0,.94-2.07v-11a2.71,2.71,0,0,0-.85-2L75.05,29A2.73,2.73,0,0,0,71.71,28.71Zm-8,13.93A1.36,1.36,0,1,1,65,41.28,1.36,1.36,0,0,1,63.67,42.64Zm6,7.68a3.17,3.17,0,0,1-3.17-3.17h6.34A3.16,3.16,0,0,1,69.68,50.32Zm6.55-9a1.36,1.36,0,1,1-1.36-1.36A1.36,1.36,0,0,1,76.23,41.28Z"/><path class="cls-1" d="M90.15,77.08c0-18.42-13.33-21-13.33-21S77.1,66.4,69.16,66.4s-7.23-10.33-7.23-10.33A22.82,22.82,0,0,0,54.77,59l0,2.59,0-2.59a17.67,17.67,0,0,0-4.21,3.71c.7,1,3.42,5.43,3.54,14.4Z"/></svg>