<svg id="Capa_1" data-name="Capa 1" xmlns="http://www.w3.org/2000/svg" viewBox="0 0 100 100"><defs><style>.cls-1{fill:#fff;}</style></defs><title>iconos</title><path class="cls-1" d="M61.51,11c12.68,14.18,12.57,35.6-.6,48.77S26.33,73,12.14,60.36l-4,4a41.51,41.51,0,1,0,58.7-58.7Z"/><path class="cls-1" d="M15.11,57.39C28.93,67.24,47,67,58,56S69.21,27,59.36,13.14Zm14.05.07c-.5.5-2.19-.39-3.78-2s-2.48-3.28-2-3.78,2.2.39,3.79,2S29.66,57,29.16,57.46Zm18.28-.09c-.5.5-2.19-.39-3.78-2s-2.48-3.29-2-3.79,2.2.39,3.79,2S47.94,56.87,47.44,57.37ZM44.7,44.53c-.5.5-2.2-.39-3.79-2s-2.48-3.29-2-3.79,2.19.39,3.78,2S45.19,44,44.7,44.53Zm12.47-.94c-.5.49-2.19-.39-3.78-2s-2.48-3.28-2-3.78,2.19.39,3.79,2S57.67,43.09,57.17,43.59Zm1.09-15.23c-.5.5-2.19-.39-3.78-2s-2.48-3.28-2-3.78,2.2.39,3.79,2S58.76,27.87,58.26,28.36Z"/><path class="cls-1" d="M60,58.19c-10.57,10.58-30,14.34-46.7,1.05l.4-.5c16.39,13.05,35.47,9.37,45.85-1,11.39-11.39,11.82-31.1,1-45.85l.52-.38C72.08,26.5,71.63,46.58,60,58.19Z"/></svg>