<svg id="el_aSCX2QGAW" data-name="Capa 1" xmlns="http://www.w3.org/2000/svg" viewBox="0 0 378 275"><style>@-webkit-keyframes kf_el_3PTIbDTKZc_an_1d9VO4cR7{0%{-webkit-transform: translate(189.30499267578125px, 117.62500381469727px) scale(0, 0) translate(-189.30499267578125px, -117.62500381469727px);transform: translate(189.30499267578125px, 117.62500381469727px) scale(0, 0) translate(-189.30499267578125px, -117.62500381469727px);}16.67%{-webkit-transform: translate(189.30499267578125px, 117.62500381469727px) scale(1, 1) translate(-189.30499267578125px, -117.62500381469727px);transform: translate(189.30499267578125px, 117.62500381469727px) scale(1, 1) translate(-189.30499267578125px, -117.62500381469727px);}33.33%{-webkit-transform: translate(189.30499267578125px, 117.62500381469727px) scale(0.9, 0.9) translate(-189.30499267578125px, -117.62500381469727px);transform: translate(189.30499267578125px, 117.62500381469727px) scale(0.9, 0.9) translate(-189.30499267578125px, -117.62500381469727px);}50%{-webkit-transform: translate(189.30499267578125px, 117.62500381469727px) scale(1, 1) translate(-189.30499267578125px, -117.62500381469727px);transform: translate(189.30499267578125px, 117.62500381469727px) scale(1, 1) translate(-189.30499267578125px, -117.62500381469727px);}66.67%{-webkit-transform: translate(189.30499267578125px, 117.62500381469727px) scale(0.9, 0.9) translate(-189.30499267578125px, -117.62500381469727px);transform: translate(189.30499267578125px, 117.62500381469727px) scale(0.9, 0.9) translate(-189.30499267578125px, -117.62500381469727px);}83.33%{-webkit-transform: translate(189.30499267578125px, 117.62500381469727px) scale(1, 1) translate(-189.30499267578125px, -117.62500381469727px);transform: translate(189.30499267578125px, 117.62500381469727px) scale(1, 1) translate(-189.30499267578125px, -117.62500381469727px);}100%{-webkit-transform: translate(189.30499267578125px, 117.62500381469727px) scale(0.9, 0.9) translate(-189.30499267578125px, -117.62500381469727px);transform: translate(189.30499267578125px, 117.62500381469727px) scale(0.9, 0.9) translate(-189.30499267578125px, -117.62500381469727px);}}@keyframes kf_el_3PTIbDTKZc_an_1d9VO4cR7{0%{-webkit-transform: translate(189.30499267578125px, 117.62500381469727px) scale(0, 0) translate(-189.30499267578125px, -117.62500381469727px);transform: translate(189.30499267578125px, 117.62500381469727px) scale(0, 0) translate(-189.30499267578125px, -117.62500381469727px);}16.67%{-webkit-transform: translate(189.30499267578125px, 117.62500381469727px) scale(1, 1) translate(-189.30499267578125px, -117.62500381469727px);transform: translate(189.30499267578125px, 117.62500381469727px) scale(1, 1) translate(-189.30499267578125px, -117.62500381469727px);}33.33%{-webkit-transform: translate(189.30499267578125px, 117.62500381469727px) scale(0.9, 0.9) translate(-189.30499267578125px, -117.62500381469727px);transform: translate(189.30499267578125px, 117.62500381469727px) scale(0.9, 0.9) translate(-189.30499267578125px, -117.62500381469727px);}50%{-webkit-transform: translate(189.30499267578125px, 117.62500381469727px) scale(1, 1) translate(-189.30499267578125px, -117.62500381469727px);transform: translate(189.30499267578125px, 117.62500381469727px) scale(1, 1) translate(-189.30499267578125px, -117.62500381469727px);}66.67%{-webkit-transform: translate(189.30499267578125px, 117.62500381469727px) scale(0.9, 0.9) translate(-189.30499267578125px, -117.62500381469727px);transform: translate(189.30499267578125px, 117.62500381469727px) scale(0.9, 0.9) translate(-189.30499267578125px, -117.62500381469727px);}83.33%{-webkit-transform: translate(189.30499267578125px, 117.62500381469727px) scale(1, 1) translate(-189.30499267578125px, -117.62500381469727px);transform: translate(189.30499267578125px, 117.62500381469727px) scale(1, 1) translate(-189.30499267578125px, -117.62500381469727px);}100%{-webkit-transform: translate(189.30499267578125px, 117.62500381469727px) scale(0.9, 0.9) translate(-189.30499267578125px, -117.62500381469727px);transform: translate(189.30499267578125px, 117.62500381469727px) scale(0.9, 0.9) translate(-189.30499267578125px, -117.62500381469727px);}}#el_aSCX2QGAW *{-webkit-animation-duration: 3s;animation-duration: 3s;-webkit-animation-iteration-count: infinite;animation-iteration-count: infinite;-webkit-animation-play-state: running;animation-play-state: running;-webkit-animation-timing-function: cubic-bezier(0, 0, 1, 1);animation-timing-function: cubic-bezier(0, 0, 1, 1);}#el_yv1KEuFgoM{fill: #9e005d;-webkit-transform: translate(-15.7px, -73.22px);transform: translate(-15.7px, -73.22px);}#el_e_5jbs9iCt{fill: #fff;}#el_J3alE0-yVn{fill: #9e005d;-webkit-transform: translate(-15.7px, -73.22px);transform: translate(-15.7px, -73.22px);}#el_fGjL2HTGsZ{fill: #9e005d;-webkit-transform: translate(-15.7px, -73.22px);transform: translate(-15.7px, -73.22px);}#el_YZr65Y8F2B{fill: #9e005d;-webkit-transform: translate(-15.7px, -73.22px);transform: translate(-15.7px, -73.22px);}#el_LzILHZQkXd{fill: #9e005d;-webkit-transform: translate(-15.7px, -73.22px);transform: translate(-15.7px, -73.22px);}#el_3PTIbDTKZc_an_1d9VO4cR7{-webkit-animation-fill-mode: backwards;animation-fill-mode: backwards;-webkit-transform: translate(189.30499267578125px, 117.62500381469727px) scale(0, 0) translate(-189.30499267578125px, -117.62500381469727px);transform: translate(189.30499267578125px, 117.62500381469727px) scale(0, 0) translate(-189.30499267578125px, -117.62500381469727px);-webkit-animation-timing-function: cubic-bezier(0, 0, 1, 1);animation-timing-function: cubic-bezier(0, 0, 1, 1);}#el_aSCX2QGAW:hover #el_3PTIbDTKZc_an_1d9VO4cR7{-webkit-animation-name: kf_el_3PTIbDTKZc_an_1d9VO4cR7;animation-name: kf_el_3PTIbDTKZc_an_1d9VO4cR7;}</style><defs/><title>Sin título-2</title><path d="M351.21,152.25c0-.28,0-.56-.08-.84a94.33,94.33,0,0,0-2.25-13l-.2-.77a95.82,95.82,0,0,0-4.26-12.82c-.09-.24-.19-.48-.29-.72q-1.53-3.65-3.37-7.21c-.72-1.39-1.49-2.74-2.28-4.08l-.4-.67a79.64,79.64,0,0,0-7.95-10.94l-.53-.61A81,81,0,0,0,320,91.33l-.66-.54a81.43,81.43,0,0,0-12.93-8.42l-.84-.44a79.41,79.41,0,0,0-15.94-6.06l-1.14-.3a77,77,0,0,0-25.71-1.93c-.74.07-1.49.17-2.23.26-1.36.17-2.71.37-4.07.62-16,2.91-29.19,10.11-39.5,21.5-.47.52-.93,1-1.39,1.58a91,91,0,0,0-14.16,22.17l0,0,0,0h0a86.33,86.33,0,0,0-6-11.92l-.41-.67a74.45,74.45,0,0,0-7.65-10.27l-.53-.6a69.67,69.67,0,0,0-10.68-9.56l-.71-.51c-1.48-1-3-2-4.56-3A70.59,70.59,0,0,0,162,78.85l-1-.38a73.11,73.11,0,0,0-19.9-4.88l-1.48-.12A78.33,78.33,0,0,0,78.41,96a94.17,94.17,0,0,0-12.08,14.71c-.29.43-.58.87-.86,1.31a84.29,84.29,0,0,0-9.25,19.67c-.11.35-.23.69-.33,1a89.42,89.42,0,0,0-3.32,15.84c0,.31-.07.62-.1.93A102,102,0,0,0,52,164.73c0,.28,0,.57,0,.85A122.73,122.73,0,0,0,53.44,179l.12.81c.19,1.16.4,2.32.62,3.49q1,5.06,2.26,10l.21.76q1.64,6.18,3.76,12.25l.26.74C67.2,225.5,77.18,243.3,90.85,261c1.4,1.81,2.83,3.59,4.27,5.37.17.2.33.41.5.62q4.11,5,8.48,9.85l.54.6q4.67,5.13,9.63,10.09l.57.58q5.5,5.46,11.39,10.72l.62.56q5.35,4.75,11.05,9.36l.67.54q5.37,4.34,11.06,8.54l.69.52q6,4.43,12.37,8.7l.74.5q5,3.36,10.21,6.63l.77.48q6.6,4.11,13.54,8.1l.8.47c2.88,1.64,5.8,3.28,8.77,4.89a8.66,8.66,0,0,0,4.09.93,10.29,10.29,0,0,0,4.76-1.1c28.38-15.51,52.19-32.08,72.59-50.52l2.14-2c.9-.82,1.8-1.65,2.68-2.48a277.72,277.72,0,0,0,24.71-26.4l1.21-1.49a223.67,223.67,0,0,0,13.51-18.67l.83-1.29a197,197,0,0,0,11.6-20.87c.18-.38.37-.76.55-1.15a186.92,186.92,0,0,0,7.3-17.86c.13-.36.26-.71.38-1.07.33-1,.66-1.95,1-2.93a148.92,148.92,0,0,0,4-14.56c.08-.32.14-.65.21-1A122.54,122.54,0,0,0,351.45,168c0-.3,0-.61.05-.9A102.84,102.84,0,0,0,351.21,152.25Zm-138.6-38.19c.63-1.14,1.29-2.26,2-3.34.33-.54.67-1.07,1-1.6.68-1.06,1.39-2.08,2.12-3.07a64.53,64.53,0,0,1,5.8-6.92c9-9.36,20.36-15.21,34.18-17.73a69,69,0,0,1,20.47-.61l-65.54,33.27h0l-9.54,4.85h0ZM83.36,101A71.33,71.33,0,0,1,125.5,80.68L81.24,103.15C81.93,102.41,82.63,101.69,83.36,101Zm-3.62,3.82,47.91-24.32c2-.17,4-.27,5.93-.27a67.13,67.13,0,0,1,18.85,2.67L65.29,127.09A81.78,81.78,0,0,1,79.74,104.78ZM64.84,128.2l88.67-45a63.51,63.51,0,0,1,13.71,6.1l1,.61L60.09,144.76A78,78,0,0,1,64.84,128.2Zm-4.9,17.51L169,90.37a62.81,62.81,0,0,1,11.34,9.22L58.85,161.25A91.53,91.53,0,0,1,59.94,145.71Zm-1.07,16.4,122-61.93a66.29,66.29,0,0,1,7.86,10.17L60,175.69A113.68,113.68,0,0,1,58.87,162.11ZM61.06,182c-.36-1.86-.66-3.69-.94-5.5l129-65.49a80.54,80.54,0,0,1,6,11.93L62.85,190.09C62.19,187.41,61.58,184.71,61.06,182Zm2,8.87,132.37-67.2c.13.32.27.64.39,1,.25.62.48,1.25.71,1.88.33.89.66,1.78,1,2.66A4.7,4.7,0,0,0,199,131c.19.16.44.39.8.74a3.5,3.5,0,0,0,5.71-1.35c.24-.66.46-1.26.66-1.83.37-1.06.7-2,1.06-2.89A95.72,95.72,0,0,1,212,115.27L279.52,81a72.13,72.13,0,0,1,18.07,5L66.71,203.16Q64.63,197.06,63,190.87Zm3.93,13L298.52,86.36a73.87,73.87,0,0,1,13.85,7.94L71.91,216.37Q69.15,210.18,67,203.9Zm5.26,13.18L313.07,94.82a74.2,74.2,0,0,1,10.06,9.05L77.83,228.4Q74.79,222.76,72.23,217.08Zm6,12L323.68,104.46a73.34,73.34,0,0,1,8.14,10.85L85,240.59Q81.35,234.86,78.19,229.09Zm7.26,12.16L332.22,116c.81,1.34,1.59,2.71,2.32,4.12,1.22,2.36,2.32,4.75,3.32,7.17L92.67,251.74C90.11,248.25,87.72,244.75,85.45,241.25ZM96.39,256.7q-1.67-2.16-3.26-4.32L338.16,128a88.64,88.64,0,0,1,4.1,12.9L101.51,263.11C99.77,261,98.06,258.86,96.39,256.7Zm5.63,7L342.43,141.67a88.39,88.39,0,0,1,1.95,13.17L110.57,273.53Q106.16,268.7,102,263.72Zm101,78.07a3.77,3.77,0,0,1-2.14.16q-2.34-1.26-4.62-2.55l53.41-27.12A405.42,405.42,0,0,1,203,341.79Zm76-53.91a309.31,309.31,0,0,1-25.67,21.68l-57.87,29.38q-7-3.94-13.71-8l110-55.85Q285.72,281.52,279,287.88Zm14.31-14.46-112.34,57q-5.28-3.24-10.34-6.56l139.51-70.83A238.62,238.62,0,0,1,293.28,273.42Zm17.84-21.74L169.85,323.4q-6.43-4.25-12.51-8.63L325,229.64A202.39,202.39,0,0,1,311.12,251.68Zm14.57-23.25L156.63,314.26q-5.76-4.17-11.21-8.47l188.85-95.87A183.79,183.79,0,0,1,325.69,228.43Zm12.5-29.35q-1.59,4.92-3.49,9.75L144.75,305.26Q139,300.68,133.58,296l207-105.1Q339.54,194.92,338.19,199.08Zm2.67-9.23L132.94,295.4q-6-5.23-11.51-10.66l222.68-113A121.2,121.2,0,0,1,340.86,189.85Zm3.34-19.07L120.84,284.17q-5-4.94-9.72-10L344.43,155.69A99.21,99.21,0,0,1,344.2,170.78Z" id="el_yv1KEuFgoM"/><g id="el_3PTIbDTKZc_an_1d9VO4cR7" data-animator-group="true" data-animator-type="2"><g id="el_3PTIbDTKZc"><rect y="55.43" width="378.61" height="124.39" id="el_e_5jbs9iCt"/><path d="M107.77,238.29H37.68V141.12H62.74V219.5h45Z" id="el_J3alE0-yVn"/><path d="M196.46,201.68q0,18.07-10.54,28.49t-29.6,10.41q-19,0-29.59-10.41t-10.54-28.49q0-18.19,10.6-28.58t29.53-10.38q19.19,0,29.66,10.45T196.46,201.68ZM167.55,219.5a18.82,18.82,0,0,0,3.42-6.76,41.11,41.11,0,0,0,1.14-10.93A42.66,42.66,0,0,0,170.94,191a19,19,0,0,0-3.26-7,11.46,11.46,0,0,0-5-3.79,17.77,17.77,0,0,0-6.33-1.11,18.36,18.36,0,0,0-6,.92,12.13,12.13,0,0,0-5.06,3.65,18.73,18.73,0,0,0-3.43,7,41.2,41.2,0,0,0-1.27,11.16,42.91,42.91,0,0,0,1.11,10.41,18.33,18.33,0,0,0,3.26,7.08,12.37,12.37,0,0,0,5,3.72,18.49,18.49,0,0,0,12.73.1A11.24,11.24,0,0,0,167.55,219.5Z" id="el_fGjL2HTGsZ"/><path d="M287.1,165l-28.26,73.28H232.22L204.16,165H229l17,50.44L262.76,165Z" id="el_YZr65Y8F2B"/><path d="M372.33,206H318.55q.52,8.61,6.56,13.18t17.78,4.57a39.91,39.91,0,0,0,14.43-2.68,44.74,44.74,0,0,0,11-5.74H371v18.86a87.05,87.05,0,0,1-15,4.63,78.12,78.12,0,0,1-15.6,1.44q-22.07,0-33.8-9.92T294.8,202.07q0-18.13,11.13-28.74t30.5-10.61q17.88,0,26.89,9t9,26ZM349,192.22q-.19-7.36-3.65-11.09t-10.77-3.72a17.23,17.23,0,0,0-11.16,3.52q-4.36,3.52-4.89,11.29Z" id="el_LzILHZQkXd"/></g></g></svg>