<svg id="Capa_1" data-name="Capa 1" xmlns="http://www.w3.org/2000/svg" viewBox="0 0 100 100"><defs><style>.cls-1{fill:#fff;}</style></defs><title>flechas</title><rect class="cls-1" x="33.67" y="31.91" width="7.6" height="35.54" rx="2.27" transform="translate(-12.21 87.15) rotate(-90)"/><path class="cls-1" d="M81.66,47,61.9,27.24a3.81,3.81,0,0,0-5.38,0h0a3.81,3.81,0,0,0,0,5.38L70.9,47a3.8,3.8,0,0,1,0,5.37L56.51,66.75a3.8,3.8,0,0,0,0,5.37h0a3.8,3.8,0,0,0,5.37,0L79,55.05h0l2.69-2.69A3.8,3.8,0,0,0,81.66,47Z"/><path class="cls-1" d="M51.24,96.45A46.77,46.77,0,1,1,98,49.68,46.82,46.82,0,0,1,51.24,96.45Zm0-86.85A40.08,40.08,0,1,0,91.31,49.68,40.13,40.13,0,0,0,51.24,9.6Z"/></svg>