<svg id="Capa_1" data-name="Capa 1" xmlns="http://www.w3.org/2000/svg" viewBox="0 0 100 100"><defs><style>.cls-1{fill:#fff;}</style></defs><title>iconos</title><path class="cls-1" d="M18.78,41.19A23.48,23.48,0,0,1,42.47,17.94a23.48,23.48,0,0,1,23.7,23.25s0,9.51-3,12.86-10.74,9.69-11.1,14.8H33.93s-5.55-8.51-8.54-11.1C25.39,57.75,18.78,53.17,18.78,41.19Z"/><path class="cls-1" d="M52.27,77.59H52V75.81h0a2,2,0,0,0,0-4h0V69.77H33.44v2.07h-.51a2,2,0,0,0,0,4h.51v1.78h-.26a2,2,0,1,0,0,4h.62a9.3,9.3,0,0,0,5.22,6c0,.1,0,.2,0,.3A3.17,3.17,0,0,0,42.16,91h1.46a3.17,3.17,0,0,0,3.17-3.17,3.26,3.26,0,0,0,0-.45,9.3,9.3,0,0,0,4.92-5.86h.61a2,2,0,1,0,0-4Z"/><path class="cls-1" d="M42.6,15.9a1.32,1.32,0,0,1-1.31-1.29L41.17,4.39a1.31,1.31,0,0,1,1.29-1.32h0a1.3,1.3,0,0,1,1.31,1.29l.13,10.22a1.31,1.31,0,0,1-1.29,1.32Z"/><path class="cls-1" d="M62.32,22.9a1.3,1.3,0,0,1-.94-2.22l7.14-7.31a1.3,1.3,0,0,1,1.87,1.82l-7.14,7.32A1.29,1.29,0,0,1,62.32,22.9Z"/><path class="cls-1" d="M69.21,42.59a1.31,1.31,0,0,1,0-2.62l10.08-.12h0a1.31,1.31,0,0,1,0,2.61l-10.07.13Z"/><path class="cls-1" d="M69.49,69.18a1.29,1.29,0,0,1-.91-.38l-7.21-7a1.3,1.3,0,1,1,1.82-1.87l7.21,7a1.31,1.31,0,0,1-.91,2.25Z"/><path class="cls-1" d="M22.76,22.9a1.33,1.33,0,0,1-.94-.39l-7.13-7.32a1.3,1.3,0,0,1,1.87-1.82l7.13,7.31a1.3,1.3,0,0,1-.93,2.22Z"/><path class="cls-1" d="M15.86,42.59h0L5.77,42.46a1.31,1.31,0,0,1,0-2.61h0L15.88,40a1.31,1.31,0,0,1,0,2.62Z"/><path class="cls-1" d="M15.58,69.18a1.31,1.31,0,0,1-.91-2.25l7.21-7a1.31,1.31,0,1,1,1.83,1.87l-7.21,7A1.33,1.33,0,0,1,15.58,69.18Z"/></svg>