<svg id="Capa_1" data-name="Capa 1" xmlns="http://www.w3.org/2000/svg" viewBox="0 0 100 100"><defs><style>.cls-1{fill:#fff;}</style></defs><title>iconos</title><rect class="cls-1" x="31.96" y="4.48" width="36.82" height="38.23" rx="8.36"/><path class="cls-1" d="M39.71,65.43H61a0,0,0,0,1,0,0v20a8.16,8.16,0,0,1-8.16,8.16h-5a8.16,8.16,0,0,1-8.16-8.16v-20A0,0,0,0,1,39.71,65.43Z"/><path class="cls-1" d="M66.22,44.12H34.51a6.34,6.34,0,0,0-6.34,6.34v7.22A6.34,6.34,0,0,0,34.51,64H66.22a6.34,6.34,0,0,0,6.34-6.34V50.46A6.34,6.34,0,0,0,66.22,44.12ZM39.6,57.49H38.4L34.94,51v6.52H34V50.2h1.51l3.15,5.95V50.2h.91Zm7.74-6.43H43.51v2h3.83v.86H43.51v2.71h3.83v.86h-4.8V50.2h4.8Zm9.13,6.43H55.38l-1.53-6.05-1.5,6.05H51.28L49.35,50.2h1l1.53,6.06,1.51-6.06h1l1.52,6.12,1.53-6.12h.95Zm9.43-1.24a1.91,1.91,0,0,1-.56.7,2.94,2.94,0,0,1-.91.49,3.9,3.9,0,0,1-1.26.18,6,6,0,0,1-1.41-.15A7.41,7.41,0,0,1,60.48,57V55.82h.06a3.9,3.9,0,0,0,1.28.71,4.1,4.1,0,0,0,1.36.25,2.49,2.49,0,0,0,1.41-.34,1,1,0,0,0,.5-.9.94.94,0,0,0-.24-.71,1.73,1.73,0,0,0-.72-.36,8.08,8.08,0,0,0-.8-.16l-.91-.16a2.71,2.71,0,0,1-1.43-.7,1.85,1.85,0,0,1-.47-1.3,1.81,1.81,0,0,1,.77-1.5,3.18,3.18,0,0,1,2-.58,6.24,6.24,0,0,1,1.41.14,7.16,7.16,0,0,1,1.13.36v1.15h-.07a3.29,3.29,0,0,0-1.09-.59,4.4,4.4,0,0,0-1.39-.23,2.15,2.15,0,0,0-1.25.33,1,1,0,0,0-.47.83,1,1,0,0,0,.23.71,1.65,1.65,0,0,0,.83.4l.89.17a9.8,9.8,0,0,1,1,.2,2.49,2.49,0,0,1,1.22.65,1.67,1.67,0,0,1,.42,1.22A2,2,0,0,1,65.9,56.25Z"/></svg>