<svg id="Capa_1" data-name="Capa 1" xmlns="http://www.w3.org/2000/svg" viewBox="0 0 100 100"><defs><style>.cls-1{fill:#fff;}</style></defs><title>iconos</title><path class="cls-1" d="M29.74,70.25S31.06,63.58,28,61c0,0,2.24,3.93,1.45,6.63,0,0-4.22-.71-4.22-5.76s3.52-3.06,3.52-3.06l-.13-4.19s4.88,7.59,13.7,2.91v2.24S32.44,62.73,29.74,70.25Z"/><path class="cls-1" d="M66.75,70.25S65.3,63.58,68.65,61c0,0-2.44,3.93-1.58,6.63a5.62,5.62,0,0,0,4.62-5.76c0-5.05-3.85-3.06-3.85-3.06L68,54.59s-5.34,7.59-15,2.91v2.24S63.8,62.73,66.75,70.25Z"/><path class="cls-1" d="M36.7,41.45a8.39,8.39,0,1,0,8.38,8.38A8.38,8.38,0,0,0,36.7,41.45Zm0,9.27a.89.89,0,1,1,.89-.89A.89.89,0,0,1,36.7,50.72Z"/><path class="cls-1" d="M59.38,41.45a8.39,8.39,0,1,0,8.39,8.38A8.38,8.38,0,0,0,59.38,41.45Zm0,9.27a.89.89,0,1,1,.9-.89A.89.89,0,0,1,59.38,50.72Z"/><path class="cls-1" d="M67.72,75.1a19.86,19.86,0,0,0-2.26-5.36,18.76,18.76,0,0,0-12.18-9.29,6.29,6.29,0,0,1-10.6,0A18.76,18.76,0,0,0,30.5,69.74a19.86,19.86,0,0,0-2.26,5.36,7.17,7.17,0,0,0,1.66,5.2c.9.81,1.66,2.6,2.43,3.79s3.13,4,3.13,4c4.62,5.7,12.52,5,12.52,5s7.9.68,12.52-5c0,0,2.36-2.77,3.13-4s1.53-3,2.43-3.79A7.17,7.17,0,0,0,67.72,75.1ZM65,80.59a.34.34,0,0,1-.17,0,.31.31,0,0,1-.26-.14,9.76,9.76,0,0,1-.91-1.79c-1,1-4.23,3.06-14.39,3.06-11,0-14.84-2.51-15.88-3.41A5.8,5.8,0,0,1,32,80a.28.28,0,0,1-.19.07.33.33,0,0,1-.24-.12.3.3,0,0,1,.05-.43,7.14,7.14,0,0,0,2.13-4,.3.3,0,0,1,.36-.23.31.31,0,0,1,.24.36,9.62,9.62,0,0,1-.73,2.15c.7.63,4.33,3.36,15.58,3.36,11.53,0,13.83-2.62,14.16-3.13a6.27,6.27,0,0,1-.27-2.26.32.32,0,0,1,.35-.27.3.3,0,0,1,.26.34,7.12,7.12,0,0,0,1.32,4.32A.32.32,0,0,1,65,80.59Z"/><path class="cls-1" d="M67.65,39A30.15,30.15,0,0,0,64,22.34a12.49,12.49,0,0,0-3.68-4C59.79,15.83,57.37,7.24,48,7h-.41C36.84,7,34.36,17.83,34,19.69a12.11,12.11,0,0,0-2,2.65A30.15,30.15,0,0,0,28.31,39S25.64,41.72,27,44s1.49,1,1.86.57a9.8,9.8,0,0,1,8.94-3.76,10.86,10.86,0,0,1,7.79,4.92,11.57,11.57,0,0,1,.33,6.5l1.24.16a6,6,0,0,0-3.89,5.52c0,3.57,3.55,4,4.6,4.05h.28c1.05-.05,4.6-.48,4.6-4.05a6,6,0,0,0-3.89-5.52l1.24-.16a9,9,0,0,1,1.28-6.76s1.37-3.92,6.84-4.66a9.8,9.8,0,0,1,8.94,3.76c.37.46.54,1.7,1.86-.57S67.65,39,67.65,39ZM48,15.05a23.25,23.25,0,0,0-9,1.47c.63-1.91,2.73-6.15,9-6.15,4.64,0,6.58,3.11,7.39,5.6A23.76,23.76,0,0,0,48,15.05Zm8.07,1.13c-.81-2.71-2.87-6.42-8.07-6.42-7.23,0-9.25,5.36-9.71,7.07A14.57,14.57,0,0,0,34.8,19c.73-3,3.59-11.37,12.79-11.37H48c8.41.21,10.93,7.3,11.61,10.21A17,17,0,0,0,56.05,16.18Z"/></svg>