<svg id="Capa_1" data-name="Capa 1" xmlns="http://www.w3.org/2000/svg" viewBox="0 0 100 100"><defs><style>.cls-1{fill:#fff;}</style></defs><title>iconos</title><path class="cls-1" d="M87.28,93.43a.65.65,0,0,1-.65-.65v-32c0-6-1.54-7.2-1.56-7.21L75.2,44.1a.65.65,0,0,1,.91-.94l9.74,9.39c.43.33,2.09,2,2.09,8.26v32A.66.66,0,0,1,87.28,93.43Z"/><path class="cls-1" d="M63.85,80.76H20.61v5.08a6.94,6.94,0,0,0,6.93,6.94h35A28.86,28.86,0,0,1,63.85,80.76ZM42.23,89.21a2.45,2.45,0,1,1,2.44-2.44A2.45,2.45,0,0,1,42.23,89.21Z"/><path class="cls-1" d="M65.2,6.67H27.54a6.93,6.93,0,0,0-6.93,6.93v2.71H72.13V13.6A6.93,6.93,0,0,0,65.2,6.67ZM51.51,12.36H41.23a.87.87,0,1,1,0-1.74H51.51a.87.87,0,0,1,0,1.74Z"/><path class="cls-1" d="M81.6,62.4l-9.47-8.48V17.62H20.61V79.45H63.85a24.76,24.76,0,0,1,4.45-8.19l-9-8.72s-6.48-4.3-2.12-9.78c4.8-6,7.8-3,7.8-3l7,5.87,8.68,7.78a.65.65,0,1,0,.88-1ZM24.84,30.11a4.44,4.44,0,0,1,4.44-4.45h2.47a4.45,4.45,0,0,1,4.45,4.45v2.47A4.44,4.44,0,0,1,31.75,37H29.28a4.44,4.44,0,0,1-4.44-4.44Zm.75,14A4.45,4.45,0,0,1,30,39.67h2.47A4.44,4.44,0,0,1,37,44.11v2.47A4.45,4.45,0,0,1,32.51,51H30a4.45,4.45,0,0,1-4.45-4.45ZM37.72,60.59A4.45,4.45,0,0,1,33.27,65H30.8a4.44,4.44,0,0,1-4.45-4.44V58.12a4.45,4.45,0,0,1,4.45-4.45h2.47a4.45,4.45,0,0,1,4.45,4.45Zm2.21-30.48a4.45,4.45,0,0,1,4.45-4.45h2.47a4.44,4.44,0,0,1,4.44,4.45v2.47A4.44,4.44,0,0,1,46.85,37H44.38a4.44,4.44,0,0,1-4.45-4.44Zm.76,14a4.44,4.44,0,0,1,4.45-4.44H47.6a4.44,4.44,0,0,1,4.45,4.44v2.47A4.45,4.45,0,0,1,47.6,51H45.14a4.45,4.45,0,0,1-4.45-4.45ZM52.81,60.59A4.44,4.44,0,0,1,48.36,65H45.9a4.44,4.44,0,0,1-4.45-4.44V58.12a4.45,4.45,0,0,1,4.45-4.45h2.46a4.45,4.45,0,0,1,4.45,4.45Zm2.22-28V30.11a4.44,4.44,0,0,1,4.44-4.45h2.47a4.45,4.45,0,0,1,4.45,4.45v2.47A4.44,4.44,0,0,1,61.94,37H59.47A4.44,4.44,0,0,1,55,32.58Zm7.67,16H60.23a4.45,4.45,0,0,1,0-8.89H62.7a4.45,4.45,0,1,1,0,8.89Z"/></svg>