<svg id="Capa_1" data-name="Capa 1" xmlns="http://www.w3.org/2000/svg" viewBox="0 0 100 100"><defs><style>.cls-1{fill:none;}.cls-2{fill:#fff;}</style></defs><title>iconos</title><polygon class="cls-1" points="40.66 56.31 40.66 75.34 55.45 65.83 40.66 56.31"/><polygon class="cls-2" points="38.51 16.31 47.69 32.76 56.73 30.17 47.59 13.82 38.51 16.31"/><polygon class="cls-2" points="48.89 13.46 58.02 29.8 66.89 27.26 57.36 11.14 48.89 13.46"/><path class="cls-2" d="M65.8,8.82l-7.13,2,9.52,16.11L79,23.79S80.25,8.82,65.8,8.82Z"/><path class="cls-2" d="M20.88,21.15S3.8,26.61,14.1,42.38l22-6.29L26.82,19.52Z"/><polygon class="cls-2" points="28.15 19.16 37.4 35.71 46.4 33.13 37.21 16.67 28.15 19.16"/><polygon class="cls-1" points="40.66 59.94 40.66 78.97 55.45 69.45 40.66 59.94"/><polygon class="cls-2" points="45.58 42.38 35.1 42.38 28.61 53.99 39.09 53.99 45.58 42.38"/><polygon class="cls-2" points="82.01 42.38 71.02 42.38 64.53 53.99 82.01 53.99 82.01 42.38"/><polygon class="cls-2" points="69.52 42.38 59.05 42.38 52.56 53.99 63.04 53.99 69.52 42.38"/><path class="cls-2" d="M14.1,81c0,7.66,7.4,8.32,7.4,8.32H74.08c7.66,0,7.93-8.06,7.93-8.06V54.78H14.1Zm26.56-21,14.79,9.51L40.66,79Z"/><path class="cls-2" d="M33.6,42.38H14.1V54h13Z"/><polygon class="cls-2" points="57.55 42.38 47.07 42.38 40.59 53.99 51.06 53.99 57.55 42.38"/><path class="cls-2" d="M14.1,54h-.21v.79h.21V54Z"/></svg>